<svg width="229" height="339" viewBox="0 0 229 339" fill="none" xmlns="http://www.w3.org/2000/svg">
<path d="M110 339V0C198.523 15.8298 225.481 111.886 228 158C230.51 203.957 201.461 320.77 110.934 338.818C110.623 338.88 110.312 338.94 110 339Z" fill="url(#paint0_linear_140_32)"/>
<circle cx="92.4928" cy="12.9121" r="12.9121" fill="url(#paint1_linear_140_32)"/>
<circle cx="92.4928" cy="167.857" r="12.9121" fill="url(#paint2_linear_140_32)"/>
<circle cx="12.9121" cy="89.3306" r="12.9121" fill="url(#paint3_linear_140_32)"/>
<path d="M19.2364 78.2631L81.4253 18.9729L83.0063 21.3445L21.8715 80.1077L19.2364 78.2631Z" fill="url(#paint4_linear_140_32)"/>
<path d="M22.3985 97.763L82.7428 159.688L81.1617 162.06L20.2904 99.6076L22.3985 97.763Z" fill="url(#paint5_linear_140_32)"/>
<circle cx="92.4928" cy="169.163" r="12.9121" fill="url(#paint6_linear_140_32)"/>
<circle cx="92.4928" cy="324.108" r="12.9121" fill="url(#paint7_linear_140_32)"/>
<circle cx="12.9121" cy="245.582" r="12.9121" fill="url(#paint8_linear_140_32)"/>
<path d="M19.2364 234.514L81.4253 175.224L83.0063 177.596L21.8715 236.359L19.2364 234.514Z" fill="url(#paint9_linear_140_32)"/>
<path d="M22.3985 254.014L82.7428 315.94L81.1617 318.311L20.2904 255.859L22.3985 254.014Z" fill="url(#paint10_linear_140_32)"/>
<defs>
<linearGradient id="paint0_linear_140_32" x1="169.074" y1="0" x2="169.074" y2="339" gradientUnits="userSpaceOnUse">
<stop stop-color="#FA3AFE"/>
<stop offset="0.947917" stop-color="#B95CBB"/>
<stop offset="1" stop-color="#D254D5"/>
</linearGradient>
<linearGradient id="paint1_linear_140_32" x1="92.4928" y1="2.86102e-06" x2="92.4928" y2="25.8242" gradientUnits="userSpaceOnUse">
<stop stop-color="#FA3AFE"/>
<stop offset="0.947917" stop-color="#B95CBB"/>
<stop offset="1" stop-color="#D254D5"/>
</linearGradient>
<linearGradient id="paint2_linear_140_32" x1="92.4928" y1="154.945" x2="92.4928" y2="180.769" gradientUnits="userSpaceOnUse">
<stop stop-color="#FA3AFE"/>
<stop offset="0.947917" stop-color="#B95CBB"/>
<stop offset="1" stop-color="#D254D5"/>
</linearGradient>
<linearGradient id="paint3_linear_140_32" x1="12.9121" y1="76.4185" x2="12.9121" y2="102.243" gradientUnits="userSpaceOnUse">
<stop stop-color="#FA3AFE"/>
<stop offset="0.947917" stop-color="#B95CBB"/>
<stop offset="1" stop-color="#D254D5"/>
</linearGradient>
<linearGradient id="paint4_linear_140_32" x1="51.1214" y1="18.9729" x2="51.1214" y2="80.1077" gradientUnits="userSpaceOnUse">
<stop stop-color="#FA3AFE"/>
<stop offset="0.947917" stop-color="#B95CBB"/>
<stop offset="1" stop-color="#D254D5"/>
</linearGradient>
<linearGradient id="paint5_linear_140_32" x1="82.4978" y1="129.661" x2="20.5398" y2="130.166" gradientUnits="userSpaceOnUse">
<stop stop-color="#FA3AFE"/>
<stop offset="0.947917" stop-color="#B95CBB"/>
<stop offset="1" stop-color="#D254D5"/>
</linearGradient>
<linearGradient id="paint6_linear_140_32" x1="92.4928" y1="156.251" x2="92.4928" y2="182.075" gradientUnits="userSpaceOnUse">
<stop stop-color="#FA3AFE"/>
<stop offset="0.947917" stop-color="#B95CBB"/>
<stop offset="1" stop-color="#D254D5"/>
</linearGradient>
<linearGradient id="paint7_linear_140_32" x1="92.4928" y1="311.196" x2="92.4928" y2="337.02" gradientUnits="userSpaceOnUse">
<stop stop-color="#FA3AFE"/>
<stop offset="0.947917" stop-color="#B95CBB"/>
<stop offset="1" stop-color="#D254D5"/>
</linearGradient>
<linearGradient id="paint8_linear_140_32" x1="12.9121" y1="232.67" x2="12.9121" y2="258.494" gradientUnits="userSpaceOnUse">
<stop stop-color="#FA3AFE"/>
<stop offset="0.947917" stop-color="#B95CBB"/>
<stop offset="1" stop-color="#D254D5"/>
</linearGradient>
<linearGradient id="paint9_linear_140_32" x1="51.1214" y1="175.224" x2="51.1214" y2="236.359" gradientUnits="userSpaceOnUse">
<stop stop-color="#FA3AFE"/>
<stop offset="0.947917" stop-color="#B95CBB"/>
<stop offset="1" stop-color="#D254D5"/>
</linearGradient>
<linearGradient id="paint10_linear_140_32" x1="82.4978" y1="285.912" x2="20.5398" y2="286.418" gradientUnits="userSpaceOnUse">
<stop stop-color="#FA3AFE"/>
<stop offset="0.947917" stop-color="#B95CBB"/>
<stop offset="1" stop-color="#D254D5"/>
</linearGradient>
</defs>
</svg>
